# xmcd
#
# Track frame offsets:
#	150
#	29287
#	55457
#	76325
#	92762
#	118545
#	142599
#	162701
#	184774
#	212253
#
# Disc length: 3167 seconds
#
# Revision: 2
# Processed by: cddbd v1.5.2PL0 Copyright (c) Steve Scherf et al.
# Submitted via: EZCDAudioConverter 8.0.2.1
#
DISCID=7d0c5d0a
DTITLE=Various Artist - Em ơi! Hà Nội phố
DYEAR=2005
DGENRE=Miscellaneous
TTITLE0=Nguyên Khang - Em ơi! Hà Nội phố
TTITLE1=Ý Lan - Về đây nghe em
TTITLE2=Vũ Khanh - Hà Nội mùa thu sớm
TTITLE3=Huyền Châu - Mưa Sài Gòn, mưa Hà Nội
TTITLE4=Nguyên Khang - Có phải em mùa thu Hà Nội
TTITLE5=Thùy Dương - Nỗi lòng người đi
TTITLE6=Tuấn Ngọc - Hà Nội mùa vắng những cơn mưa
TTITLE7=Kim Anh - Nhớ mùa thu Hà Nội
TTITLE8=Nguyên Khang - Chiều mưa Hà Nội
TTITLE9=Huyền Châu - Hướng về Hà nội
EXTD=
EXTT0=
EXTT1=
EXTT2=
EXTT3=
EXTT4=
EXTT5=
EXTT6=
EXTT7=
EXTT8=
EXTT9=
PLAYORDER=
